<?xml version="1.0" encoding="UTF-8" standalone="no"?>
<!-- Created with Inkscape (http://www.inkscape.org/) -->

<svg
   xmlns:dc="http://purl.org/dc/elements/1.1/"
   xmlns:cc="http://creativecommons.org/ns#"
   xmlns:rdf="http://www.w3.org/1999/02/22-rdf-syntax-ns#"
   xmlns:svg="http://www.w3.org/2000/svg"
   xmlns="http://www.w3.org/2000/svg"
   xmlns:sodipodi="http://sodipodi.sourceforge.net/DTD/sodipodi-0.dtd"
   xmlns:inkscape="http://www.inkscape.org/namespaces/inkscape"
   width="210mm"
   height="297mm"
   viewBox="0 0 744.09448819 1052.3622047"
   id="svg2"
   version="1.1"
   inkscape:version="0.91 r13725"
   sodipodi:docname="Logo.svg">
  <defs
     id="defs4" />
  <sodipodi:namedview
     id="base"
     pagecolor="#ffffff"
     bordercolor="#666666"
     borderopacity="1.0"
     inkscape:pageopacity="0.0"
     inkscape:pageshadow="2"
     inkscape:zoom="0.49497475"
     inkscape:cx="165.49195"
     inkscape:cy="625.60217"
     inkscape:document-units="px"
     inkscape:current-layer="layer1"
     showgrid="false"
     inkscape:window-width="1366"
     inkscape:window-height="704"
     inkscape:window-x="0"
     inkscape:window-y="27"
     inkscape:window-maximized="1" />
  <metadata
     id="metadata7">
    <rdf:RDF>
      <cc:Work
         rdf:about="">
        <dc:format>image/svg+xml</dc:format>
        <dc:type
           rdf:resource="http://purl.org/dc/dcmitype/StillImage" />
        <dc:title></dc:title>
      </cc:Work>
    </rdf:RDF>
  </metadata>
  <g
     inkscape:label="Layer 1"
     inkscape:groupmode="layer"
     id="layer1">
    <g
       id="g4764">
      <path
         inkscape:connector-curvature="0"
         id="path4521"
         d="m 166.05639,374.04565 c -43.44944,44.54152 -72.549058,101.83226 -82.0287,163.46252 -1.11541,7.25176 -2.136994,14.65178 -2.268449,16.44361 l -0.07949,1.09443 22.162331,0 c -0.30127,-6.70929 4.331,-32.14444 9.08316,-48.70724 14.97577,-52.19543 44.86744,-97.81699 84.47056,-132.29332 l -31.33941,0 z m 113.0484,0 c -23.59005,11.43783 -41.48722,23.98997 -60.24497,42.25357 -20.21079,19.67836 -33.47961,37.86827 -45.7564,62.72176 -11.0208,22.31087 -19.28045,49.60344 -21.56742,71.2657 -0.19167,1.81555 -0.50654,3.53498 -0.8256,4.75953 l 459.50788,0 c -0.56459,-2.23067 -1.3111,-6.1219 -1.97413,-10.46078 -6.00449,-39.29399 -20.70237,-73.28183 -45.78821,-105.88047 -7.80918,-10.1479 -29.21959,-31.39994 -39.4952,-39.2025 -13.20033,-10.02338 -26.93126,-18.51474 -41.14162,-25.45681 l -202.71433,0 z m 282.94233,0 c 12.7917,11.14427 24.67289,23.51719 35.46582,37.03113 21.66026,27.12106 39.66326,62.32706 49.31173,96.43458 4.10679,14.51758 8.90602,40.34045 9.03547,47.53485 l 23.73402,0 c -0.34787,-1.76546 -0.73633,-4.19867 -1.07058,-6.89909 -8.21862,-66.40099 -37.23093,-126.63503 -83.78651,-174.10147 l -32.68995,0 z M 21.231124,547.02882 c -0.570044,0 -2.082343,2.84045 -3.359669,6.31211 -0.226502,0.61561 -0.421078,1.16899 -0.606043,1.70528 l 31.134152,0 c -9.853644,-1.48508 -18.299729,-3.64115 -22.483636,-5.97963 -2.006354,-1.12139 -4.11476,-2.03776 -4.684804,-2.03776 z"
         style="fill:#004cfb" />
      <path
         sodipodi:nodetypes="cssscccssccsssccssscc"
         inkscape:connector-curvature="0"
         id="path4233"
         d="m 363.20763,281.06687 c -1.14215,-0.70589 -19.00794,1.09622 -31.70051,3.19741 -44.80955,7.41797 -86.42704,24.22831 -122.82039,49.61079 -67.33348,46.96161 -113.005264,119.91282 -125.359236,200.22957 -1.11541,7.25177 -2.136994,14.6502 -2.268367,16.44202 l -0.13683,1.85959 22.283283,0 c -0.76446,-5.26972 4.06385,-32.20025 9.01955,-49.4724 29.56883,-103.05753 117.26261,-180.51454 223.1157,-197.07193 10.99082,-1.71916 26.18345,-3.30989 26.79463,-2.80449 16.86515,-0.88222 16.01951,-1.24066 37.54812,0.90195 2.10888,-0.18276 11.93935,-0.10316 29.72797,3.0956 65.64854,11.80499 124.9266,47.4353 167.40123,100.61826 21.66026,27.12106 39.66326,62.32549 49.31172,96.433 4.27291,15.10477 9.29115,42.43709 9.02275,48.30001 l 23.90901,0 c -0.38377,-1.75096 -0.84383,-4.52131 -1.23284,-7.66425 -8.34289,-67.40495 -38.09981,-128.46337 -85.89743,-176.25375 -39.63392,-39.62791 -87.3416,-66.55228 -141.32084,-79.75555 -13.03709,-3.18886 -32.44287,-6.35947 -43.1762,-7.0534 -15.35181,-0.9302 -40.67333,-1.30499 -44.22132,-0.61243 z"
         style="fill:#004cfb" />
      <path
         sodipodi:nodetypes="ccccccsscsssccsccccssccccssccssccccssscssccccssssccccss"
         inkscape:connector-curvature="0"
         id="path4231"
         d="m 361.49939,211.79052 c 2.03208,3.28797 4.51583,70.0447 2.56111,68.83662 C 229.94127,305.45978 92.152795,425.52104 81.911953,550.10693 l -0.240185,3.25786 -0.617202,-0.01 0,43.65024 25.304044,0 c 1.93379,0 3.49015,1.55794 3.49015,3.4917 l 0,145.42334 37.64674,0 c 1.93377,0 3.4901,1.55815 3.4901,3.49169 l 0,51.43226 c 0,1.93378 -1.55633,3.49006 -3.4901,3.49006 -98.281634,5.11533 38.35216,7.49406 67.60219,7.49406 2.32053,0 4.18846,1.86797 4.18846,4.18849 l 0,16.75542 c 117.20102,20.86953 340.41333,-46.70121 417.8397,-107.83871 -1.4722,-24.67438 9.57777,-48.00865 28.06883,-59.27303 -17.94981,-196.14695 -81.36529,-371.94033 -256.91445,-384.42119 -8.30943,-0.53722 -8.48984,-0.59171 -8.90344,-2.67087 -2.74597,-13.80443 -3.24352,-39.57638 -1.00853,-52.21167 1.76326,-9.96849 5.42077,-22.04117 6.84342,-22.58709 0,0 -17.74395,-15.2119 -43.71229,8.02057 z m 0.61085,90.73173 c 0.49536,0.002 0.80011,0.0323 0.8765,0.0955 0.42338,0.35008 -3.72125,28.86678 -5.47695,37.68333 -0.82592,4.14747 -1.84441,7.08757 -2.58497,7.46699 -0.67194,0.34425 -5.2533,1.22492 -10.18082,1.95662 -101.52441,23.04483 -181.3274,94.58074 -193.05687,196.7172 -0.3074,2.91171 -0.92945,5.75216 -1.38236,6.3121 -0.62234,0.76942 -6.24646,1.01808 -23.02296,1.01808 -16.79834,0 -22.38785,-0.24766 -22.98005,-1.01808 -1.69254,-2.20199 3.46946,-31.76925 8.77464,-50.25982 C 166.91626,395.1413 255.00583,303.68935 362.11024,302.52225 Z m 40.56896,0.46291 c 253.22507,180.66589 229.5647,87.38486 13.73773,46.73789 -4.92751,-0.74236 -9.3765,-1.77448 -9.88652,-2.29227 -1.12258,-1.13967 -5.99555,-36.829 -5.99555,-43.91113 0,-0.33657 0.74707,-0.51171 2.14434,-0.53449 z m 30.76673,65.3831 c 0.50557,-0.007 263.46502,160.4258 152.08109,1.64547 126.29692,298.79366 -42.15871,233.27812 -160.15097,28.59632 l -9.77358,-2.50544 -2.33523,-10.82506 c -1.36691,-6.33458 -2.03458,-11.12571 -1.60984,-11.55045 6.88937,-3.56122 14.20498,-5.25852 21.78853,-5.36084 z m -86.36353,5.40697 c 2.76912,0 2.73111,0.51514 -0.96399,12.96781 -2.64067,8.89918 -3.24866,10.18883 -5.0395,10.70576 -1.11989,0.32325 -5.70126,1.59071 -10.18082,2.81564 C 257.8775,434.94728 215.28473,489.86392 199.4781,554.3097 l -23.16454,-0.16226 c 6.41463,-78.10421 69.48452,-170.55451 143.8215,-174.32736 8.50917,-0.43187 24.18162,-6.04485 26.94734,-6.04485 z"
         style="fill:#67a906" />
      <path
         sodipodi:nodetypes="cssssssssssssssssssssssssscccsccccccscccccccccccccsssssssssssssssssssssssssssssssssssssssccscccsccssscccssccccccccccccccccc"
         inkscape:connector-curvature="0"
         id="path4582"
         d="m 275.51068,533.18424 c -0.56224,0 -1.47851,0.54977 -2.03617,1.2217 -1.17739,1.41868 -5.34751,1.63817 -6.15939,0.32452 -0.80484,-1.30225 -5.09285,-0.234 -8.73482,2.17614 -3.54192,2.34393 -7.91081,8.70378 -7.91081,11.51545 0,1.03827 0.45121,2.61171 1.00376,3.49648 0.82839,1.32645 0.73951,2.10253 -0.51063,4.42388 -1.50486,2.79436 -1.43806,3.63521 0.50746,6.35346 0.82769,1.15644 0.73615,1.92513 -0.50587,4.23141 -1.50835,2.80083 -1.44101,3.62428 0.51859,6.38369 0.84117,1.1845 0.76921,1.88549 -0.40246,3.93552 -1.7448,3.05279 -1.7901,4.30346 -0.20362,5.62013 0.67194,0.55765 1.2217,1.84043 1.2217,2.85062 0,1.01019 -0.54976,2.29298 -1.2217,2.85063 -0.67193,0.55766 -1.22169,1.65719 -1.22169,2.4434 0,0.78621 0.54976,1.88574 1.22169,2.44339 0.67194,0.55766 1.2217,1.84044 1.2217,2.85063 0,1.01019 -0.54976,2.29297 -1.2217,2.85063 -0.67193,0.55765 -1.22169,1.65718 -1.22169,2.44339 0,0.78622 0.54976,1.88574 1.22169,2.4434 0.67194,0.55766 1.2217,1.84044 1.2217,2.85063 0,1.01019 -0.54976,2.29297 -1.2217,2.85063 -0.67193,0.55765 -1.22169,1.65718 -1.22169,2.44339 0,0.78621 0.54976,1.88574 1.22169,2.4434 1.38137,1.14643 1.64172,4.53106 0.40724,5.29402 -1.61353,0.99721 -0.76288,5.18632 1.83254,9.02434 1.82256,2.69515 4.08766,4.68843 7.27292,6.40278 l 4.62591,2.49111 2.58497,-1.52235 c 2.54434,-1.49737 2.61898,-1.49419 4.74045,0.15908 2.68501,2.09243 2.26089,2.08948 5.58513,0.035 l 2.80608,-1.73551 2.34636,1.73551 c 2.8807,2.1298 2.75846,2.13034 5.70444,-0.0477 l 2.40999,-1.78164 2.40999,1.78164 c 1.32573,0.98015 2.62378,1.78323 2.88403,1.78323 0.26026,0 1.55831,-0.80308 2.88404,-1.78323 l 2.40998,-1.78164 2.41,1.78164 c 2.94598,2.17805 2.82214,2.17751 5.70284,0.0477 l 2.34795,-1.73551 2.88244,1.78323 2.88404,1.78164 2.40999,-1.78164 2.41158,-1.78323 2.88244,1.78323 2.88404,1.78164 2.36862,-1.75142 c 2.26242,-1.67267 2.48563,-1.6907 4.95838,-0.412 1.56899,0.81138 3.29519,1.11767 4.38093,0.77788 3.54212,-1.10856 8.71633,-5.34328 10.7328,-8.78413 2.28108,-3.89236 2.5611,-6.23736 1.03718,-8.6871 -0.84256,-1.35443 -0.77235,-2.06672 0.40723,-4.12801 1.7448,-3.04899 1.79015,-4.29864 0.20362,-5.61535 -0.67194,-0.55766 -1.2217,-1.84044 -1.2217,-2.85063 0,-1.01019 0.54976,-2.29297 1.2217,-2.85063 1.57349,-1.30588 1.54118,-2.56998 -0.13999,-5.49922 -1.34301,-2.34008 -1.22343,-3.36607 0.70311,-6.04645 0.78757,-1.09573 0.68346,-1.91662 -0.52972,-4.16937 -1.48797,-2.763 -1.40914,-3.72116 0.52972,-6.41868 0.78757,-1.09573 0.68346,-1.91662 -0.52972,-4.16936 -1.48797,-2.763 -1.40914,-3.72116 0.52972,-6.41869 0.78757,-1.09572 0.68346,-1.91661 -0.52972,-4.16936 -1.48797,-2.763 -1.40914,-3.72116 0.52972,-6.41869 0.78925,-1.09806 0.67409,-1.93495 -0.59175,-4.28548 -1.3005,-2.41489 -1.40013,-3.19881 -0.56949,-4.52888 0.55255,-0.88477 1.00535,-2.45821 1.00535,-3.49647 0,-2.81167 -4.36889,-9.17152 -7.91081,-11.51546 -3.64197,-2.41014 -7.92999,-3.47839 -8.73482,-2.17614 -0.80847,1.30812 -3.53245,1.09608 -6.20394,-0.482 -2.19072,-1.29409 -2.42602,-1.29409 -3.85598,0 -1.88526,1.70613 -5.33429,1.78803 -6.68752,0.15748 -0.55766,-0.67193 -1.47393,-1.22169 -2.03617,-1.22169 -0.56223,0 -1.4785,0.54976 -2.03616,1.22169 -0.55765,0.67194 -2.02369,1.2217 -3.25786,1.2217 -1.23417,0 -2.7002,-0.54976 -3.25786,-1.2217 -0.55766,-0.67193 -1.47393,-1.22169 -2.03616,-1.22169 -0.56224,0 -1.47851,0.54976 -2.03617,1.22169 -0.55765,0.67194 -2.02369,1.2217 -3.25786,1.2217 -1.23416,0 -2.7002,-0.54976 -3.25786,-1.2217 -0.55765,-0.67193 -1.47393,-1.22169 -2.03616,-1.22169 -0.56223,0 -1.47851,0.54976 -2.03616,1.22169 -0.55766,0.67194 -2.0237,1.2217 -3.25786,1.2217 -1.23417,0 -2.70021,-0.54976 -3.25786,-1.2217 -0.55766,-0.67193 -1.47393,-1.22169 -2.03617,-1.22169 -0.56223,0 -1.4785,0.54976 -2.03616,1.22169 -0.55765,0.67194 -2.02369,1.2217 -3.25786,1.2217 -1.23417,0 -2.7002,-0.54976 -3.25786,-1.2217 -0.55766,-0.67193 -1.47393,-1.22169 -2.03616,-1.22169 z m 13.24779,17.17854 c 3.59443,8.1e-4 8.24337,0.0389 14.33744,0.0954 l 25.48385,0.23702 2.99062,2.28114 c 5.83101,4.44994 5.83965,4.49358 5.83965,32.79972 l 0,25.30887 -2.29386,3.46625 c -1.44289,2.18002 -3.5576,4.03921 -5.70126,5.01246 -3.09776,1.40643 -5.59207,1.54799 -27.43412,1.56371 -22.81789,0.0164 -24.20127,-0.0696 -27.49614,-1.70052 -7.71611,-3.8194 -8.53979,-7.51496 -8.19556,-36.78455 l 0.26247,-22.29757 2.23978,-3.38353 c 1.23897,-1.87106 3.71096,-4.13406 5.52945,-5.06177 2.35923,-1.2036 3.65437,-1.5392 14.43768,-1.53667 z m -10.30649,7.25542 -2.28591,1.96458 -2.28432,1.96616 0,24.1683 0,24.16671 2.28432,1.96617 2.28591,1.96617 23.52881,0 23.52882,0 2.28432,-1.96617 2.28591,-1.96617 0,-24.16671 0,-24.1683 -2.28591,-1.96616 -2.28432,-1.96458 -23.52882,0 z"
         style="fill:#720585" />
      <path
         inkscape:connector-curvature="0"
         id="path4229"
         d="m 359.50141,282.34674 c -9.71461,0.24458 -35.3262,4.12357 -51.62469,8.12556 -35.42503,8.69841 -69.48397,24.08052 -99.18976,44.79877 -67.33346,46.96161 -113.005331,119.91281 -125.359222,200.22957 -1.11541,7.25175 -2.136993,14.6502 -2.268448,16.44201 l -0.166965,2.28115 22.491615,0 c -1.33653,-3.57591 3.56606,-31.50748 8.84143,-49.89395 27.03168,-94.21483 102.31951,-167.27208 197.60639,-191.75245 13.73049,-3.52753 32.18489,-6.75986 42.901,-7.51312 4.25048,-0.29878 8.18285,-0.82512 8.73959,-1.16921 1.22151,-0.75493 2.92132,-20.10294 1.858,-21.14905 -0.23487,-0.23107 -0.96588,-0.36031 -2.10616,-0.39928 -0.49887,-0.017 -1.07514,-0.0163 -1.72278,0 z m 39.36794,0.17498 0.0604,7.24747 c 0.0332,3.98559 0.30809,8.88762 0.61085,10.89347 l 0.55041,3.646 11.10345,1.36487 c 21.53867,2.64705 38.68997,6.55469 58.31061,13.28279 69.23604,23.74164 125.77966,73.52043 158.25598,139.32284 11.24734,22.7889 18.38517,43.45983 23.18522,67.14407 2.36666,11.67756 4.29227,25.70511 4.02937,28.80057 l 24.17149,0 c -0.39833,-1.68985 -0.90431,-4.69893 -1.32351,-8.0858 -8.34289,-67.40497 -38.09982,-128.46338 -85.89744,-176.25375 -39.63392,-39.62791 -87.3416,-66.55228 -141.32084,-79.75555 -13.05373,-3.19292 -32.4459,-6.35879 -43.21437,-7.05498 l -8.52166,-0.552 z"
         style="fill:#720585" />
      <path
         sodipodi:nodetypes="cscccsssccccscccssscccccscccccccc"
         inkscape:connector-curvature="0"
         id="path4227"
         d="m 205.95245,335.41673 c -67.353,46.97523 -110.787029,120.03785 -123.359685,200.72158 -1.134876,7.28279 -1.342157,15.80851 -1.348673,17.34533 0,0.55491 -0.01466,1.02735 -0.03828,1.46826 l 22.452358,0.58176 c -0.4271,-6.43369 3.5865,-31.11581 9.03234,-49.4583 25.04489,-84.35602 101.88313,-167.12665 197.17001,-191.60702 13.73049,-3.52753 32.18489,-6.75985 42.90099,-7.51312 4.25049,-0.29878 9.81944,-0.9121 9.81944,-0.9121 0,0 2.13235,-25.45045 1.06904,-26.49656 -82.96458,8.92752 -115.97951,27.21902 -157.69754,55.87017 z m 192.94575,-56.09447 0.0604,12.33788 c 0.0195,3.98567 0.30809,8.88761 0.61085,10.89347 l 0.5504,3.646 11.10345,1.36487 c 21.53868,2.64705 38.68998,6.55469 58.31062,13.28278 69.23604,23.74164 125.77966,73.52047 158.25598,139.32285 11.24734,22.78897 18.38516,43.45979 23.18521,67.14406 2.13844,10.55138 4.79233,23.18642 4.9227,27.78317 l 25.1607,0.29088 C 673.69785,478.58536 637.79088,408.74066 594.42327,366.42742 531.30565,304.62439 443.20657,282.20724 398.8982,279.32226 Z M 21.6847,547.79033 c -0.887034,8.2e-4 -1.735707,0.98374 -2.635854,2.98903 -0.611093,1.36137 -1.132514,2.75814 -1.593908,4.17254 l 0.795325,0 c 0.81194,-2.35155 1.708585,-4.4825 2.219092,-5.17949 1.126487,-1.53806 1.262177,-1.54816 2.740919,-0.20997 2.121926,1.92031 7.868874,3.82411 15.643432,5.38946 l 3.544227,0 c -10.015315,-1.76316 -17.287349,-3.98097 -19.055634,-6.11167 -0.579166,-0.69777 -1.125346,-1.05046 -1.657599,-1.0499 z"
         style="fill:#e40e06" />
      <path
         sodipodi:nodetypes="csssscccccccccccccccsccccccsccccccccccscccssssscsscccssscssssssssssssssssscssscsssssssccsscssssssscccsscssssssscsssscccccccccsssscccsssssccsssssssssssssscsssssccccssssscccssssssscscsccscsccsssccssscscccssssssssssssssssssscccsssssssssssssssssssscccccccscccssccccccssccsccssssssscsssssssssscsccsccscsscscccc"
         inkscape:connector-curvature="0"
         id="path4223"
         d="m 420.55873,421.59117 c 0.33374,1.19659 1.22742,3.6333 2.95243,8.31009 6.09369,16.52101 14.05043,30.63558 19.53285,34.64976 1.11989,0.81998 6.06971,3.25547 11.00005,5.41174 12.23684,5.35176 20.43025,11.06726 30.53767,21.30336 14.0661,14.24518 25.06356,31.54693 31.08966,48.91563 l 2.68042,7.72788 0.42314,26.87735 0.42155,26.87734 17.14512,0.0763 c 1.23797,-7.93114 1.89304,-15.94462 1.95982,-23.97423 -0.0349,-8.39959 -0.13174,-15.91107 -1.44804,-24.20397 -7.58967,-30.41953 -9.13528,-47.87652 -37.82923,-81.91355 -0.54131,-0.63529 -1.08749,-1.2663 -1.63847,-1.89299 -2.53242,-2.87827 -5.16551,-5.66813 -7.90127,-8.35781 -1.4521,-1.42445 -2.93071,-2.82086 -4.43502,-4.18845 -2.36422,-2.15232 -4.79172,-4.23687 -7.28564,-6.2453 -1.73196,-1.39326 -3.49224,-2.74994 -5.27971,-4.06914 -2.6722,-1.97222 -5.41051,-3.86068 -8.20987,-5.66467 -1.41827,-0.91367 -2.85065,-1.8046 -4.29662,-2.67246 -9.12885,-5.47437 -18.86473,-10.05375 -29.09645,-13.59298 -2.3344,-0.80749 -4.57677,-1.64008 -6.31052,-2.33363 l -0.007,-0.003 c -1.33071,-0.36322 -2.66599,-0.70898 -4.00552,-1.03717 z m -89.29369,1.51122 c -1.58291,0.50586 -3.15794,1.03671 -4.72454,1.59233 -1.37714,0.54913 -2.83956,1.1282 -4.44457,1.73234 -7.99104,3.00788 -15.66989,6.66476 -22.97682,10.89506 -0.13055,0.0757 -0.26098,0.15146 -0.39132,0.22748 -3.94065,2.29666 -7.76943,4.76321 -11.48205,7.38268 -1.18205,0.83285 -2.35295,1.68186 -3.51239,2.54679 -3.10951,2.32394 -6.12475,4.76438 -9.04979,7.30315 -0.75053,0.65578 -1.49503,1.31861 -2.23341,1.98844 -3.12943,2.82051 -6.15598,5.74919 -9.0482,8.80163 -0.94882,1.0074 -1.88479,2.02715 -2.80768,3.05902 -3.62242,4.02714 -7.04799,8.22606 -10.23808,12.59239 -0.007,0.0101 -0.0149,0.0201 -0.0222,0.0302 -13.88888,19.01931 -23.51776,41.06158 -27.50252,64.46683 -0.63399,3.7239 -1.31636,6.9349 -1.51599,7.13452 -0.008,0.008 -0.42582,0.016 -0.54563,0.0239 -0.36679,2.16078 -0.69031,4.32889 -0.97036,6.50299 13.75763,-0.29472 19.77197,-0.18052 21.84103,0.39451 3.83082,1.06465 5.93192,0.61974 5.93192,-1.25351 0,-0.98898 -1.06908,-1.24715 -5.16677,-1.24715 -4.13692,0 -5.46366,-0.32548 -6.64616,-1.63212 -1.22053,-1.34868 -1.31572,-1.9854 -0.55039,-3.66509 0.84321,-1.85066 1.38365,-2.03439 6.03372,-2.04571 2.80932,-0.007 5.51512,-0.28174 6.01145,-0.61085 0.49633,-0.32911 1.63443,-2.266 2.5293,-4.30457 2.41481,-5.50111 6.11142,-9.2233 11.61249,-11.69203 l 4.90905,-2.20319 0.0191,-9.52542 c 0.0165,-8.08613 0.30676,-10.22108 1.92004,-14.14339 4.12354,-10.02548 11.39766,-18.08684 28.68285,-31.78799 13.22832,-10.48547 18.43272,-17.1214 26.38263,-33.63646 5.47289,-11.36932 8.08406,-17.57589 7.95536,-18.92676 z m 23.18043,5.43082 c -2.96499,0.15347 -6.83396,3.97367 -14.18156,13.06326 -15.86644,19.62812 -28.15015,32.48701 -39.29634,41.13527 -12.62428,9.79509 -20.69633,18.28396 -24.24943,25.50134 -2.52456,5.12808 -2.65147,5.82179 -2.46885,13.44982 0.10591,4.42393 0.403,8.38392 0.66017,8.80003 1.05963,1.71452 1.98366,-0.45921 1.98366,-4.66567 0,-5.74047 1.00633,-7.63561 4.05324,-7.63561 3.02975,0 3.48285,0.81788 4.04051,7.29519 0.25235,2.93119 0.82464,5.32902 1.2726,5.32902 0.44795,0 1.02184,-2.39783 1.2742,-5.32902 0.55704,-6.47024 1.0106,-7.29519 4.01982,-7.29519 3.00922,0 3.46438,0.82495 4.02142,7.29519 0.25236,2.93119 0.82465,5.32902 1.2726,5.32902 0.44796,0 1.02185,-2.39783 1.2742,-5.32902 0.55705,-6.47024 1.01061,-7.29519 4.01983,-7.29519 3.03245,0 3.5792,0.95986 4.07232,7.14406 0.22398,2.80891 0.77374,5.19122 1.2217,5.29403 0.44796,0.10279 1.02184,-2.21171 1.2742,-5.1429 0.55704,-6.47024 1.0106,-7.29519 4.01982,-7.29519 3.03245,0 3.57921,0.95986 4.07233,7.14406 0.22398,2.80891 0.77374,5.10942 1.2217,5.11269 0.44795,0.003 1.0319,-2.18906 1.29805,-4.87089 0.54507,-5.49226 1.69257,-7.38586 4.47479,-7.38586 2.53766,0 3.59351,2.21855 3.59351,7.54811 0,4.84358 0.51601,5.93084 2.16502,4.56228 0.67952,-0.56395 1.09284,-2.65624 1.09284,-5.53104 0,-4.9952 0.91556,-6.57935 3.80031,-6.57935 2.53234,0 3.52987,2.27579 3.52987,8.04602 l 0,4.89475 4.90907,2.20319 c 5.50107,2.46873 9.19926,6.19092 11.61408,11.69203 0.89487,2.03856 2.03296,3.97546 2.52929,4.30457 0.49633,0.32911 3.20054,0.60433 6.00987,0.61085 4.65007,0.0113 5.1905,0.19505 6.03372,2.04571 0.76532,1.67969 0.67013,2.31641 -0.5504,3.66509 -1.1825,1.30664 -2.50765,1.63211 -6.64457,1.63211 -4.05061,0 -5.16836,0.26411 -5.16836,1.2217 0,1.03638 2.03061,1.2217 13.38141,1.2217 11.07814,0 13.60073,0.2209 14.66037,1.28055 1.15053,1.15052 1.27897,12.08459 1.27897,108.18229 l 0,70.3908 c 13.20744,-0.65491 26.28367,-2.96962 38.92889,-6.89119 l -0.20362,-6.36138 c -0.30137,-9.38362 -0.72916,-17.3552 -0.95127,-17.71462 -0.22211,-0.35942 -4.59762,-0.65377 -9.72268,-0.65377 l -9.31863,0 0,-72.44765 c 0,-50.49145 -0.2771,-73.75533 -0.91467,-76.76334 -1.34289,-6.33568 -3.29587,-9.62392 -8.67915,-14.60788 -5.70149,-5.27857 -12.3083,-8.67419 -29.90773,-15.37622 -17.53691,-6.6782 -24.22607,-10.09175 -29.68821,-15.14873 -6.8196,-6.31374 -9.24882,-11.31153 -9.66064,-19.87485 -0.1835,-3.81546 0.0475,-8.31846 0.51381,-10.00743 1.01454,-3.67437 22.13029,-36.35746 23.50655,-36.38369 0.52819,-0.0101 1.38327,2.08835 1.90095,4.6641 2.68925,13.38053 7.97023,32.11862 10.96823,38.91933 3.0958,7.02257 7.8534,10.1272 28.17859,18.39228 28.6307,11.64245 38.47407,18.39053 44.55697,30.54722 4.56279,9.11876 4.5294,8.52994 4.17095,73.59297 l -0.33088,59.87912 42.28061,0.57102 c 10.72001,0.1449 18.71386,0.2801 24.94299,0.4232 4.44315,-5.95895 8.47472,-12.22241 12.06586,-18.74545 l -61.37122,-0.16703 0,-53.34746 0,-53.34747 -1.90095,-5.29402 c -2.37661,-6.61563 -4.37996,-9.92225 -9.06728,-14.9674 -4.87712,-5.24943 -10.27616,-8.83281 -25.36614,-16.83493 -15.28509,-8.10558 -22.21215,-12.63246 -28.88806,-18.87745 -11.94043,-11.16969 -15.41172,-23.662 -9.77518,-35.18267 1.13713,-2.32421 2.96091,-5.06469 4.05165,-6.0894 l 1.98208,-1.86277 6.79092,6.82274 c 12.81605,12.87752 28.81791,23.62418 56.20605,37.74855 9.70836,5.00671 19.48743,10.45055 21.73126,12.09767 10.02639,7.36004 16.70313,17.83637 19.26402,30.2227 1.15796,5.60078 1.334,12.30011 1.25192,47.70666 -0.0525,22.65481 0.13977,41.80492 0.42791,42.55581 0.3735,0.97332 4.41007,1.25399 36.28029,1.33304 1.97994,-6.03899 3.60744,-12.191 4.87406,-18.42409 -13.64625,0.0131 -23.34704,-0.0585 -23.6179,-0.22588 -0.47515,-0.29367 -0.90211,-12.43017 -1.07853,-30.60767 -0.28083,-28.93632 -0.36794,-30.34516 -2.18728,-35.82215 -2.45315,-7.385 -8.17414,-18.76182 -13.31142,-26.47011 -13.36185,-20.04893 -28.79365,-33.4867 -45.33485,-39.47611 -3.93509,-1.42487 -8.21839,-3.33589 -9.51747,-4.24731 -1.29907,-0.91142 -6.76038,-4.13141 -12.13585,-7.1552 -5.37547,-3.0238 -15.51016,-9.30616 -22.52187,-13.96045 -7.01169,-4.65428 -13.2885,-8.46279 -13.94771,-8.46279 -2.66558,0 -8.38808,2.6471 -14.89899,6.89113 -8.16736,5.32376 -10.4055,6.05931 -12.54308,4.12482 -1.27363,-1.15261 -1.53746,-2.54162 -1.52394,-8.03648 0.0178,-7.26095 -1.49363,-12.7219 -4.3698,-15.78345 -1.21621,-1.29459 -2.37781,-1.98342 -3.72554,-1.91367 z m 34.68954,35.14449 c -1.26953,-0.15153 -1.45026,1.37631 -1.4619,4.4732 -0.0214,5.70304 2.26602,10.70103 7.41767,16.20817 6.18162,6.60817 13.63689,11.7039 29.22053,19.97349 22.68589,12.03847 30.12737,18.35521 35.96214,30.52335 5.4135,11.28964 5.43772,11.60237 4.95201,65.06813 l -0.43427,47.75757 57.65203,0.01 c 1.84085,-3.88169 3.52839,-7.83626 5.0586,-11.85428 -29.63113,0.0735 -40.72617,-0.12581 -40.90461,-0.65698 -0.17303,-0.5151 -0.45584,-21.82799 -0.62834,-47.36147 -0.27482,-40.6777 -0.48626,-47.02944 -1.7037,-51.3113 -2.2135,-7.78506 -4.97816,-13.0736 -9.19613,-17.58896 -5.30861,-5.68288 -10.66766,-9.18566 -25.15934,-16.4436 -22.82037,-11.42923 -38.13728,-21.06226 -52.77798,-33.19423 -4.36821,-3.6197 -6.72719,-5.45109 -7.99671,-5.60263 z m -43.06803,4.41434 c -0.58805,0 -3.58429,3.91044 -6.65889,8.69028 -5.48275,8.5236 -5.59116,8.79749 -5.64239,14.25314 -0.12234,13.03648 6.4553,19.36091 29.46072,28.32175 6.49536,2.53001 14.55857,5.71348 17.91824,7.07567 13.3739,5.42253 24.13006,14.20703 28.15154,22.99114 1.10017,2.40307 2.35262,7.07648 2.78222,10.38602 0.44147,3.40083 0.79075,35.14695 0.80492,73.00758 l 0.0254,66.98978 8.48507,0 c 4.6669,0 9.06501,0.22284 9.77358,0.4947 1.13053,0.43379 1.28851,3.17365 1.28851,22.36913 0,3.19327 0.0127,5.14359 0.0207,7.47817 26.62835,-9.66029 50.25215,-26.31374 68.45961,-48.26023 l -26.57192,0 c -33.57992,0 -42.74503,-0.21787 -42.82623,-1.01809 -0.0568,-0.55994 -0.14848,-30.5221 -0.20362,-66.58255 l -0.10022,-65.56444 -2.39885,-4.73885 c -5.26554,-10.40039 -14.6311,-16.5281 -43.2112,-28.27404 -14.48207,-5.95188 -23.20042,-11.10584 -26.82644,-15.85979 -2.94035,-3.85499 -4.97541,-8.88617 -8.5662,-21.17132 -1.93658,-6.62563 -3.49554,-10.58805 -4.16459,-10.58805 z m -43.92544,81.14124 c -4.0596,0 -8.1192,0.0342 -11.1989,0.10339 -6.15939,0.13837 -1.11989,0.25294 11.1989,0.25294 12.31878,0 17.35829,-0.11457 11.19889,-0.25294 -3.07969,-0.0691 -7.13929,-0.10339 -11.19889,-0.10339 z m -82.97682,18.60066 c -0.26346,3.30503 -0.42685,6.61747 -0.48995,9.93266 0.054,13.1416 1.68373,26.22775 4.85339,38.97025 5.13347,-2.44009 6.74644,-2.7697 14.62856,-3.18946 7.25117,-0.38616 9.00842,-0.7187 9.00842,-1.7021 0,-0.92596 -1.33789,-1.32028 -5.52786,-1.62893 -5.28376,-0.38923 -7.0709,-1.31563 -7.0709,-3.6651 0,-2.34946 1.78714,-3.27587 7.0709,-3.66509 4.18997,-0.30865 5.52786,-0.70297 5.52786,-1.62893 0,-0.92596 -1.33789,-1.32028 -5.52786,-1.62893 -5.28376,-0.38923 -7.0709,-1.31563 -7.0709,-3.66509 0,-2.34947 1.78714,-3.27587 7.0709,-3.6651 4.18997,-0.30865 5.52786,-0.70297 5.52786,-1.62893 0,-0.92596 -1.33789,-1.32028 -5.52786,-1.62893 -5.31297,-0.39137 -7.04876,-1.30098 -7.08362,-3.71282 -0.0351,-2.42724 2.15877,-3.5658 7.30951,-3.79235 4.27593,-0.18807 5.33845,-0.50456 5.55809,-1.65756 0.23575,-1.2376 -0.41775,-1.42532 -4.95679,-1.42532 -4.19668,0 -5.51915,-0.32174 -6.70502,-1.63211 -1.21001,-1.33705 -1.31244,-1.99283 -0.5679,-3.62691 0.81572,-1.79032 1.47537,-2.01975 6.433,-2.2366 4.37156,-0.19122 5.57752,-0.52238 5.7808,-1.58916 0.20566,-1.07929 -3.60551,-1.31851 -28.24063,-1.53349 z m 151.0292,0.20202 c -1.16569,-0.007 -2.42176,0.002 -3.70964,0.0302 -7.6915,0.16844 -9.36635,0.42367 -9.36635,1.42691 0,0.93681 1.23454,1.27567 5.29403,1.45394 5.15916,0.22657 7.35257,1.36375 7.31746,3.79236 -0.0349,2.41184 -1.77065,3.32144 -7.08362,3.71282 -4.18998,0.30865 -5.52787,0.70297 -5.52787,1.62893 0,0.9368 1.23454,1.27567 5.29403,1.45394 5.15916,0.22657 7.35257,1.36375 7.31746,3.79235 -0.0349,2.41185 -1.77065,3.32145 -7.08362,3.71282 -4.18998,0.30865 -5.52787,0.70298 -5.52787,1.62893 0,0.92596 1.33789,1.32028 5.52787,1.62893 5.28375,0.38923 7.07249,1.31563 7.07249,3.6651 0,2.34946 -1.78874,3.27587 -7.07249,3.66509 -4.18998,0.30865 -5.52787,0.70297 -5.52787,1.62893 0,0.92596 1.33789,1.32028 5.52787,1.62893 5.28375,0.38923 7.07249,1.31563 7.07249,3.66509 0,2.34947 -1.78874,3.27587 -7.07249,3.6651 -4.18998,0.30865 -5.52787,0.70297 -5.52787,1.62893 0,0.92595 1.33789,1.32028 5.52787,1.62893 5.37454,0.39591 7.05096,1.2986 7.08362,3.81143 0.0305,2.3451 -2.57665,3.51875 -7.81218,3.51875 l -5.2638,0 -1.6178,3.77485 c -2.60596,6.07947 -6.06885,9.77178 -11.81452,12.60036 l -5.25266,2.58656 0.20839,58.7306 0.12726,35.93192 c 13.06515,3.51189 26.51682,5.32872 40.03287,5.40691 l -0.26565,-67.79942 c -0.29178,-74.39989 -0.65603,-103.12023 -1.31237,-103.56276 -0.37464,-0.25258 -3.06796,-0.41771 -6.56504,-0.43745 z m -96.0687,3.40899 c -0.0782,0.24119 -0.13176,5.30707 -0.13204,13.93022 -4.1e-4,12.54276 0.11316,17.78773 0.25134,11.65543 0.13819,-6.13228 0.13777,-16.39454 0,-22.80502 -0.0431,-2.00327 -0.0838,-2.89026 -0.1193,-2.78063 z m -31.05149,49.41353 c -1.6902,-0.01 -3.85691,0.0778 -6.65412,0.21953 -5.03197,0.25503 -8.66352,0.66716 -11.46773,1.42849 5.53462,19.47281 14.6211,37.72024 26.78827,53.79609 5.1202,-4.93656 10.67289,-13.43159 12.9694,-19.96556 1.0382,-2.95385 1.59552,-6.67112 1.59552,-10.6294 l 0,-6.08622 -5.32742,-2.54361 c -5.61004,-2.67743 -10.37219,-7.84032 -11.3882,-12.34742 -0.66186,-2.93611 -1.44514,-3.84194 -6.51572,-3.8719 z m 86.1965,18.66749 c -0.77667,-0.12822 -1.59947,2.22161 -1.88027,5.94145 -0.44871,5.94419 -1.30355,7.37618 -4.16141,6.96749 -2.55737,-0.3657 -3.95594,-3.42696 -3.97051,-8.68868 -0.0176,-6.36269 -1.93407,-5.14916 -2.45613,1.55575 -0.47785,6.13697 -1.04745,7.26656 -3.66668,7.26656 -2.93399,0 -4.47797,-2.89281 -4.47797,-8.39281 0,-6.85024 -1.88791,-5.79528 -2.51338,1.40464 -0.47841,5.50693 -1.32796,6.9493 -4.10574,6.97544 -2.25244,0.0212 -3.5444,-2.46549 -3.96893,-7.64356 -0.22398,-2.73186 -0.77374,-4.96792 -1.2217,-4.96792 -0.44795,0 -1.02858,2.50818 -1.29168,5.5724 -0.47409,5.52154 -1.33288,7.02795 -4.00234,7.02795 -2.66946,0 -3.52665,-1.50641 -4.00074,-7.02795 -0.2631,-3.06422 -0.84533,-5.5724 -1.29328,-5.5724 -0.44796,0 -0.99772,2.23606 -1.2217,4.96792 -0.45318,5.52744 -1.71272,7.65629 -4.53046,7.65629 -2.56321,0 -3.13835,-1.15535 -3.61419,-7.26656 -0.24503,-3.14685 -0.81276,-5.36263 -1.42532,-5.56445 -0.74757,-0.24629 -1.01959,1.14366 -1.02285,5.2304 -0.0124,14.58059 -3.9344,24.06384 -14.08293,34.05481 -1.04961,1.03331 -2.33027,2.18887 -3.70327,3.36919 17.26392,20.6651 39.35906,36.61298 64.26639,46.3864 0.79874,-0.31104 1.61297,-0.61215 2.45931,-0.89404 l 6.21347,-2.06955 1.01491,-9.70045 c 1.22431,-11.70353 0.39161,-21.19352 -1.8596,-21.19352 -0.53374,0 -3.98523,2.01849 -7.67061,4.48591 -3.68537,2.46734 -8.90427,5.60572 -11.59658,6.97386 -5.05014,2.5663 -10.60236,3.97133 -10.60236,2.68195 0,-0.403 3.34706,-3.09676 7.43836,-5.98436 4.0913,-2.88769 10.96335,-8.60621 15.27122,-12.70851 l 7.83286,-7.45903 0.48041,-20.66869 c 0.26397,-11.36775 0.31057,-21.14125 0.1034,-21.72013 -0.22706,-0.63445 -0.48081,-0.95307 -0.7397,-0.9958 z"
         style="fill:#542200" />
      <path
         sodipodi:nodetypes="csssccssscsssssssssssssscsscscccscssccsscssccssssccsssssssssssssssscsssssssssssssssssssssssssssssscsssssssssscsssssscscsscscsssssccssscsssscccsssccsscsscsccscscscssscccccscscssssscsccscccscsscscccscccsccscssssscccsssscsssscssssssssscscscssscsssscssscscssssssscsscscssssscssssscssscssssscscscsccsssssssccs"
         style="fill:#010100"
         d="m 347.82775,942.12734 c -7.30185,-2.4166 -8.19374,-3.15239 -6.32468,-5.21763 3.37225,-3.72626 7.07392,-19.33882 8.62547,-36.37963 0.48943,-5.37547 1.06295,-11.63366 1.27449,-13.907 0.24293,-2.61085 0.0131,-4.59456 -0.62385,-5.38516 -1.04737,-1.29997 -16.6443,-3.68692 -18.7675,-2.87221 -0.59437,0.22813 -3.206,4.20883 -5.80363,8.84615 -17.22795,30.75543 -36.46026,44.62813 -56.31055,40.61827 -5.75164,-1.16191 -15.12258,-5.49446 -19.05211,-8.8086 l -2.81845,-2.3771 3.52277,-3.98485 c 2.1095,-2.38622 5.74685,-8.5593 9.0666,-15.38736 6.01614,-12.37401 13.47276,-32.21308 12.78301,-34.01052 -0.43133,-1.12404 -13.93495,-7.11997 -16.03508,-7.11997 -0.6188,0 -4.90674,3.84631 -9.52876,8.54748 -9.91533,10.08495 -19.4203,17.37319 -28.24762,21.65981 -8.06802,3.9179 -13.70117,5.0856 -22.50379,4.66468 -10.83639,-0.51808 -19.72825,-5.34965 -27.78223,-15.09611 -3.68012,-4.45341 -3.78093,-4.81911 -1.52581,-5.53486 3.20572,-1.01743 11.21361,-8.49552 17.58965,-16.42581 9.18641,-11.4258 19.18368,-26.10751 18.87365,-27.71739 -0.34894,-1.81185 -15.15446,-13.26448 -17.14784,-13.26448 -0.85207,0 -3.0813,1.0509 -4.95382,2.33532 -11.35096,7.78606 -28.28831,14.92004 -40.20108,16.93267 -6.5726,1.11044 -8.94953,1.17804 -14.06279,0.39957 -8.67017,-1.31984 -16.68101,-5.41212 -22.01128,-11.24434 -3.99951,-4.37612 -9.797686,-14.37558 -9.797686,-16.897 0,-0.72911 1.658414,-1.66631 4.315606,-2.43883 4.58796,-1.33369 15.04065,-7.54952 23.52644,-13.99023 10.8607,-8.2432 21.00095,-17.09636 21.01314,-18.34591 0.0146,-1.49658 -7.74151,-12.03617 -9.29656,-12.63284 -0.56821,-0.21812 -5.21161,0.86862 -10.31867,2.41497 -36.223587,10.9675 -61.38934,5.27781 -72.307815,-16.34811 -1.864311,-3.69262 -4.139438,-12.32994 -4.159066,-15.78955 -0.0114,-2.03233 0.219498,-2.14115 5.485585,-2.58373 6.075585,-0.51058 17.93998,-4.06589 28.1673,-8.44071 12.780426,-5.46685 22.438926,-10.27472 22.863506,-11.38117 0.40927,-1.06638 -4.48404,-13.5167 -6.057505,-15.41269 -0.516941,-0.62282 -4.191808,-0.79386 -11.632273,-0.54154 -24.453584,0.82937 -43.104673,-3.95007 -53.893404,-13.81032 -8.355761,-7.63666 -11.830513,-16.18659 -11.810152,-29.0597 0.01548,-9.5242 0.317642,-10.18852 4.101565,-9.00594 3.667781,1.14631 18.068991,1.12845 26.835649,-0.0332 12.978828,-1.7199 30.067284,-5.21486 30.456436,-6.22901 0.667698,-1.73996 -1.661998,-15.13106 -2.749309,-15.80304 -0.571999,-0.35354 -4.199627,-1.26566 -8.061494,-2.02695 -15.170961,-2.99071 -31.687418,-9.60279 -40.924593,-16.38351 -5.536571,-4.06422 -10.082427,-9.49466 -13.129667,-15.68441 -2.326438,-4.7257 -2.654586,-6.25804 -2.929305,-13.679 -0.24996,-6.75181 0.01385,-9.42053 1.373514,-13.89306 0.925558,-3.04476 2.216159,-6.26408 2.868057,-7.15404 1.126487,-1.53806 1.262095,-1.54846 2.740757,-0.21027 4.037059,3.65348 21.120058,7.25907 40.536419,8.55574 12.31683,0.82253 76.889095,0.68656 101.400915,-0.21352 8.28719,-0.30431 24.68848,-0.29521 36.44732,0.0203 19.28601,0.51736 21.58539,-1.19452 21.58539,0.0446 0,2.97251 -1.81023,5.2309 -15.23256,5.23479 -25.08134,0.007 -49.28195,2.21651 -63.56901,5.80316 -13.19624,3.3128 -23.20884,9.84287 -26.49985,17.28288 -5.11842,11.57095 -4.01979,45.27853 2.93721,90.12084 1.78579,11.51083 1.98151,12.21698 3.38597,12.21698 1.10499,0 1.20776,-1.01564 0.76223,-7.53381 -2.59543,-37.97126 -2.84612,-72.81483 -0.53996,-75.03034 1.0487,-1.00747 2.25971,-1.02304 8.55189,-0.10999 22.43507,3.25555 35.15344,9.80584 33.30893,17.15497 -0.28927,1.15252 -2.15029,3.99614 -4.13561,6.31913 -8.48641,9.92981 -11.87655,22.88238 -10.24799,39.15401 1.20905,12.08007 3.25296,20.2077 4.99727,19.87181 1.0747,-0.20695 1.55613,-2.78604 2.70585,-14.49552 2.0448,-20.8256 3.61431,-29.32965 4.99944,-27.08846 0.88895,1.43835 2.93242,19.71909 4.62231,41.35096 3.26372,41.77791 6.69415,71.18955 9.4343,80.88722 1.0466,3.70403 1.48071,4.29085 3.0125,4.07233 4.16683,-0.5944 3.86983,-11.07933 -1.8068,-63.78345 -4.78165,-44.39494 -5.90688,-57.96659 -6.04374,-72.89465 -0.13423,-14.64194 0.36632,-18.17867 2.51431,-17.76502 3.1889,0.61414 7.21199,7.9412 15.7154,28.62182 2.54654,6.19326 4.1822,8.06437 5.71217,6.53439 1.1887,-1.1887 -0.68483,-10.58516 -3.42107,-17.1579 -2.86732,-6.88763 -10.48845,-19.93958 -13.61467,-23.31652 -4.58608,-4.95387 -10.61127,-7.07608 -30.59868,-10.77757 -24.06045,-4.45586 -25.70581,-5.13586 -25.70581,-10.62381 0,-3.19722 6.24021,-8.91838 14.25315,-13.06758 11.87718,-6.15017 11.38168,-6.08925 48.78936,-5.99851 18.32298,0.0445 33.5686,0.23784 33.87915,0.42977 0.31054,0.19193 0.79211,5.76804 1.07014,12.39136 0.33511,7.98288 1.2064,15.42298 2.58463,22.07073 1.14352,5.51558 1.86339,10.37738 1.59973,10.80401 -0.26367,0.42661 -1.71499,1.29193 -3.22515,1.92292 -4.03349,1.68529 -10.00909,7.53986 -12.48698,12.23404 -2.11457,4.00593 -2.1645,4.43929 -2.06822,17.95094 0.0626,8.77969 1.01049,22.93526 2.59069,38.6871 3.37626,33.65541 3.67424,40.04986 2.4671,52.94007 -1.68093,17.94951 -1.60984,18.608 3.22518,29.87043 2.34133,5.45382 4.4808,11.54903 4.75437,13.54496 0.94587,6.9008 -2.07402,7.97663 -33.67396,11.99552 -10.65395,1.35503 -20.36236,2.79468 -21.57424,3.19931 -2.61331,0.87253 -10.67395,6.26706 -13.987,9.36081 -3.08862,2.88418 -1.75706,4.69734 1.6709,2.27537 4.43587,-3.13423 14.09837,-7.53332 19.98335,-9.09799 9.14504,-2.43142 13.66275,-2.74254 24.47156,-1.68529 19.36061,1.8938 28.84112,-2.38923 29.75785,-13.4438 0.44947,-5.42002 -0.70491,-10.39421 -5.23833,-22.57152 -4.05853,-10.90178 -4.35149,-14.40479 -2.23845,-26.76569 2.29214,-13.40854 7.14081,-23.55938 11.25339,-23.55938 2.35288,0 15.53633,13.49292 22.60208,23.13269 6.87077,9.37368 9.90083,15.88223 10.29802,22.11989 0.37627,5.90935 -0.66577,9.53617 -6.5088,22.65345 -7.45073,16.72651 -15.74339,28.80177 -23.2821,33.90203 -4.49858,3.04348 -5.42069,4.88898 -2.43993,4.88328 4.74129,-0.009 16.94639,-11.2225 22.83745,-20.98199 4.22329,-6.9965 9.2997,-19.78695 12.0199,-30.28508 1.329,-5.12901 1.68715,-8.37986 1.40597,-12.76144 -0.3509,-5.46759 -0.74224,-6.49691 -5.58934,-14.7011 -2.86662,-4.85201 -8.34959,-13.03674 -12.18439,-18.18823 -8.35748,-11.22699 -10.12447,-14.08739 -11.23737,-18.19099 -1.28733,-4.74695 -0.13637,-6.51532 7.40799,-11.38232 3.72758,-2.40462 8.71014,-6.08869 11.07235,-8.18668 2.53687,-2.25305 4.69203,-3.57517 5.26506,-3.23 0.53357,0.32147 3.5357,3.05286 6.67139,6.06964 6.80845,6.55041 14.17293,12.48306 21.74267,17.5154 3.05628,2.03184 5.93291,4.3968 6.39252,5.25558 0.4596,0.85885 1.61731,1.56141 2.57269,1.56141 0.95538,0 5.61547,1.79044 10.35577,3.97874 4.7403,2.18839 10.92759,4.80966 13.74954,5.82514 4.18316,1.50529 5.08575,2.14522 4.8868,3.46457 -0.18103,1.20044 -1.61084,2.06214 -5.53806,3.3376 -14.72642,4.78278 -22.78415,14.4372 -24.12931,28.91058 -0.81605,8.78042 2.09438,8.60857 3.24316,-0.19148 1.48909,-11.407 14.00268,-23.9373 23.14795,-23.17887 l 3.03223,0.25143 -0.23772,3.66509 c -0.74945,11.55498 -6.22362,36.48959 -10.76849,49.04994 -4.32085,11.9412 -17.81468,33.58022 -27.19702,43.6137 -3.27937,3.507 -4.54496,5.40919 -3.97682,5.97736 0.56813,0.56809 2.48771,-0.53201 6.03185,-3.45676 8.68901,-7.17063 14.54812,-13.74515 17.53468,-19.67567 3.35353,-6.65922 8.72713,-12.79475 11.20583,-12.79475 2.39196,0 4.79858,1.72267 11.48001,8.21738 3.13569,3.04805 6.66435,5.90186 7.84148,6.34167 5.39676,2.0166 44.5378,4.60937 47.44857,3.14309 2.33579,-1.17674 0.10721,-2.19986 -4.82417,-2.21484 -5.9928,-0.0179 -22.32538,-2.15223 -31.94871,-4.17438 -10.37635,-2.18033 -14.64024,-4.68684 -18.0099,-10.58691 -4.40007,-7.70419 -4.1079,-16.47785 1.00037,-30.03951 l 2.60495,-6.91579 3.87705,-0.55457 c 5.6189,-0.80379 12.98378,-4.53241 21.1909,-10.72829 4.26713,-3.22146 7.99193,-5.42809 9.16273,-5.42809 2.36895,0 2.65184,-2.02264 0.44786,-3.20215 -2.48253,-1.32864 -6.18784,0.27342 -13.88119,6.00163 -8.13042,6.0536 -12.14418,7.98836 -15.82981,7.6304 l -2.56441,-0.24906 -0.22254,-15.00791 c -0.12241,-8.25436 0.0608,-15.26878 0.40723,-15.58756 0.34638,-0.31886 3.92836,0.10963 7.95996,0.95211 4.03161,0.8424 12.36969,1.97956 18.52909,2.52696 l 11.19889,0.9952 0,23.06337 c 0,19.60931 -0.1805,23.13268 -1.20521,23.52591 -2.0345,0.78066 -4.49604,5.62103 -4.49604,8.84101 0,2.46156 0.61335,3.6673 3.16203,6.21592 2.83672,2.83678 3.58446,3.16208 7.2677,3.16208 3.18216,0 4.64555,-0.45431 6.5059,-2.01971 4.99324,-4.2015 5.40624,-10.43867 0.97246,-14.68652 l -2.43326,-2.33116 0,-23.02297 0,-23.02298 2.64701,-0.38573 c 1.45586,-0.21209 6.15298,-0.79532 10.43805,-1.29598 4.28507,-0.50073 11.15567,-1.73798 15.26801,-2.74947 5.00425,-1.23082 7.74738,-1.56858 8.29465,-1.02134 0.44972,0.44975 0.81768,4.74133 0.81768,9.53682 l 0,8.71917 -2.85063,3.41196 c -4.48066,5.36301 -3.76873,11.92418 1.68385,15.51858 4.65802,3.07061 12.0687,1.33124 14.72529,-3.4561 0.57428,-1.03486 1.05713,-3.43827 1.073,-5.34078 0.0236,-2.83124 -0.48857,-4.03185 -2.82177,-6.61443 l -2.85062,-3.15532 0,-11.00041 c 0,-7.83076 0.29335,-11.23099 1.01808,-11.80046 0.55994,-0.43998 4.79593,-2.48168 9.41331,-4.53714 14.78372,-6.58088 27.09223,-14.63399 41.2978,-27.0198 l 7.02179,-6.12226 12.16223,0 12.16223,0 0,8.85935 c 0,7.04724 -0.26088,9.07591 -1.2754,9.9179 -5.19415,4.31072 -4.49174,13.66958 1.24874,16.63806 11.00448,5.69067 21.57559,-8.2981 12.21981,-16.17047 l -2.41957,-2.03592 0,-11.79574 c 0,-6.48762 -0.22246,-12.37547 -0.49437,-13.08397 -0.41704,-1.08682 -2.2326,-1.29028 -11.60613,-1.30078 -6.11146,-0.008 -11.58599,-0.31333 -12.16562,-0.68106 -0.77955,-0.49454 0.47725,-2.71722 4.82852,-8.53942 l 5.88238,-7.87084 48.72256,0 48.72257,0 0,6.68058 c 0,6.3736 -0.11649,6.8007 -2.53558,9.29663 -5.03618,5.19596 -3.62905,13.02102 2.89853,16.11851 5.97558,2.83564 13.5616,-0.87506 14.75106,-7.21543 0.65947,-3.51531 -0.0284,-5.60653 -2.93165,-8.91326 -2.24205,-2.55351 -2.35662,-3.09049 -2.89943,-13.58877 -0.3326,-6.43267 -0.9344,-11.17636 -1.46256,-11.52852 -0.49358,-0.32911 -22.9796,-0.60399 -49.96894,-0.61085 -33.21588,-0.008 -49.07152,-0.28438 -49.07152,-0.85401 0,-0.46285 0.92244,-2.66191 2.04988,-4.88679 l 2.04988,-4.04525 57.56513,0 57.56511,0 2.24627,2.15206 c 3.10415,2.97396 8.98997,3.49689 12.75587,1.1333 5.51242,-3.45976 6.33356,-10.82701 1.72089,-15.43969 -4.25425,-4.25424 -11.24858,-4.08738 -15.4344,0.36822 l -1.89067,2.01253 -54.69868,0 c -30.08428,0 -54.89622,-0.19755 -55.13767,-0.439 -0.68346,-0.68345 4.10742,-15.26297 5.25485,-15.99149 0.56163,-0.35658 19.00571,-0.65395 40.98686,-0.66081 l 39.96571,-0.0125 2.72347,2.43151 c 4.70978,4.20489 10.18426,4.26044 14.78461,0.15003 2.0468,-1.82881 2.61914,-3.07646 2.93917,-6.40711 0.36741,-3.82368 0.18823,-4.36431 -2.3724,-7.15845 -4.55309,-4.96828 -11.83006,-4.8303 -16.48431,0.31258 -1.53402,1.69508 -1.94561,1.71232 -40.87688,1.71232 -22.70724,0 -39.52057,-0.3128 -39.7847,-0.74015 -0.25159,-0.40708 -0.01,-3.61404 0.53765,-7.12657 0.5584,-3.58382 0.97018,-13.58509 0.93834,-22.79039 l -0.0568,-16.40398 21.25797,-0.57075 c 11.69188,-0.31391 27.85514,-0.31114 35.91834,0.007 8.06321,0.31731 30.23702,0.64894 49.27514,0.73695 l 34.61477,0.16004 10.18082,2.93238 c 17.44894,5.02583 27.11884,9.21893 36.33997,15.75783 17.47726,12.39352 22.72193,30.9752 14.17501,50.22101 l -1.7129,3.85707 -4.25069,-2.39893 c -7.40103,-4.17683 -23.82065,-7.70893 -45.69213,-9.82903 -5.49852,-0.53299 -9.16773,-0.57111 -9.6387,-0.10014 -0.41825,0.41826 -0.95863,2.94592 -1.20084,5.61702 l -0.44037,4.85657 8.66051,4.58377 c 13.01401,6.88794 20.49015,12.22511 28.61061,20.42511 8.43427,8.51681 12.09481,14.67734 13.9187,23.42445 1.96767,9.43688 0.0815,18.72105 -5.75597,28.33011 -4.37058,7.19482 -4.64164,7.29761 -9.03796,3.42784 -4.10311,-3.61174 -15.78531,-9.89844 -26.01141,-13.99797 -8.90818,-3.57159 -22.41424,-8.11777 -24.11542,-8.11777 -0.99071,0 -2.10689,1.83768 -3.83383,6.3121 -1.33992,3.47166 -2.67383,6.90097 -2.96424,7.62063 -0.38081,0.94364 2.23011,4.00928 9.36453,10.99528 11.20758,10.97426 16.46956,17.5641 21.06716,26.38321 4.41709,8.47288 6.0654,14.60727 6.01833,22.39779 -0.0489,8.08878 -2.03845,14.03373 -7.04382,21.04823 -3.11695,4.36797 -8.24962,9.38361 -11.65024,11.38451 -0.56844,0.3345 -1.74517,-0.81618 -2.97416,-2.90821 -1.11847,-1.9039 -4.54355,-5.87498 -7.6113,-8.82449 -8.93728,-8.59301 -33.27587,-26.04448 -36.20817,-25.9623 -1.06861,0.0301 -2.28092,1.50302 -8.78777,10.67829 l -2.68575,3.78718 6.62864,10.98364 c 9.8377,16.30103 14.25198,28.04301 15.24971,40.56425 1.27492,15.99993 -6.28657,29.59938 -20.66514,37.16674 -7.98531,4.20264 -8.06046,4.19661 -9.50799,-0.75949 -2.26811,-7.7656 -11.38635,-20.9232 -25.74053,-37.14344 -4.04572,-4.57166 -7.14801,-7.4187 -7.80795,-7.16549 -2.34755,0.90088 -13.38135,10.57215 -13.38135,11.72894 0,0.67364 1.0829,4.60539 2.40646,8.73725 3.96546,12.3793 5.73819,22.74093 5.73819,33.53968 0,15.51035 -3.16077,24.49056 -11.379,32.32946 -6.44375,6.14628 -14.05587,9.69425 -24.54242,11.43924 l -2.93557,0.48852 -0.46414,-5.91953 c -0.28725,-3.66355 -1.59576,-9.1787 -3.43345,-14.47142 -3.1281,-9.00912 -15.03608,-34.39999 -16.58095,-35.35479 -1.12107,-0.69287 -16.36881,5.9245 -16.51756,7.16843 -0.0593,0.49601 -0.0255,6.21616 0.0751,12.71152 0.38772,25.03691 -4.48317,42.47819 -14.7861,52.94488 -7.48034,7.59928 -16.81634,10.89502 -29.56949,10.43851 -7.27834,-0.26047 -7.32853,-0.27676 -7.09696,-2.2985 1.09346,-9.54667 1.03531,-17.9772 -0.18624,-26.99944 -1.92245,-14.19898 -4.90117,-28.30714 -6.24007,-29.5549 -0.9351,-0.87148 -2.93939,-0.79329 -11.2827,0.44021 -5.58009,0.82498 -10.58454,1.66836 -11.121,1.87425 -0.53648,0.20582 -1.5731,3.05645 -2.30361,6.33459 -6.50694,29.19979 -17.44572,47.41074 -32.82455,54.6467 -4.92543,2.3174 -6.40436,2.61394 -14.05647,2.81813 -7.28095,0.19425 -9.44585,-0.0676 -14.5672,-1.76259 z M 220.36848,684.57796 c -0.85608,-17.19035 -2.15663,-31.52347 -3.35176,-36.93918 -2.77176,-12.56014 -0.9111,-18.80172 6.71754,-22.53407 2.5468,-1.24603 4.65936,-1.83187 5.07278,-1.40672 0.38964,0.40069 1.83268,3.57183 3.20674,7.04697 4.87491,12.32901 11.97258,25.15975 19.41758,35.10185 1.96431,2.62315 3.77588,5.30209 4.02573,5.95317 1.29294,3.36936 -23.38172,20.18741 -32.20779,21.95268 l -2.40002,0.47997 z"
         id="path4221"
         inkscape:connector-curvature="0" />
      <path
         sodipodi:nodetypes="csssssscsssssssssccssssssssssssscssccccccccssscccscssssssscccssccscsccccccccccssccc"
         inkscape:connector-curvature="0"
         id="path4225"
         d="m 416.95798,6.775119 c -22.18652,-0.099951 -43.12406,23.358323 -48.37636,54.75369 -0.59031,3.528515 -1.53506,6.582532 -2.10298,6.800466 -0.56696,0.21756 -2.72368,-1.296767 -4.79293,-3.366038 -10.14663,-10.146623 -21.78179,-14.509484 -33.72236,-12.644888 -17.9654,2.805392 -34.95537,20.472965 -39.55087,41.128899 -2.96342,13.320032 -0.50647,27.550342 6.60798,38.268732 1.62918,2.45445 2.77375,4.95361 2.54361,5.55331 -0.26357,0.68687 -2.49208,1.28331 -6.02258,1.61143 -12.66359,1.17695 -26.22889,6.19741 -34.94247,12.93282 -5.67278,4.38493 -11.84672,12.49338 -14.75104,19.37218 -1.97575,4.6795 -2.23834,6.33399 -2.2525,14.25314 -0.0149,8.34082 0.15724,9.32448 2.49747,14.25314 6.32512,13.32108 19.93457,22.77091 38.62824,26.82326 6.58434,1.42734 9.7742,1.62533 21.57219,1.33305 18.66316,-0.46233 30.83102,-3.23416 50.90407,-11.5934 12.77917,-5.32177 15.1212,-6.46562 24.28443,-11.85747 l 8.40235,-4.94405 8.29418,2.48634 c 7.854,2.35497 18.94432,4.6298 33.5426,6.87841 10.22691,1.57528 43.75426,1.30922 53.7547,-0.42631 29.36517,-5.09622 48.93357,-15.48371 55.92926,-29.68821 1.54303,-3.13305 1.89399,-5.14631 1.87868,-10.77576 -0.0227,-8.35082 -1.91006,-12.88097 -8.90185,-21.35744 -2.48416,-3.01166 -4.51774,-5.7244 -4.51774,-6.02736 0,-0.30297 1.85023,-2.32353 4.11051,-4.49069 6.32054,-6.06009 7.94591,-11.61721 5.13176,-17.54759 -0.74075,-1.56103 -2.39005,-3.61006 -3.66509,-4.55274 -2.89533,-2.14063 -2.8901,-2.89357 0.0557,-7.53857 9.83044,-15.500992 0.58246,-37.858938 -19.64897,-47.506221 -9.43935,-4.501125 -16.20454,-5.976072 -27.48661,-5.992362 -9.70927,-0.01401 -19.24607,1.396555 -28.47129,4.212308 -2.87303,0.87691 -5.47468,1.438907 -5.78238,1.248738 -0.30771,-0.190178 -0.80829,-4.189381 -1.11193,-8.885937 -1.67226,-25.8658 -12.53081,-41.3544514 -29.88706,-42.6305717 -0.71779,-0.052777 -1.435,-0.081121 -2.15069,-0.084305 z M 355.13836,350.39122 c -45.71072,4.14894 -89.82558,26.7295 -119.74637,49.89973 -10.40346,8.23824 -29.40745,27.89592 -37.73518,38.63332 -25.27272,34.05423 -43.70034,71.43352 -44.90448,116.04888 l 24.18977,-0.41137 0.17976,-3.42807 c 0.44509,-8.48116 4.2097,-25.60385 8.50416,-38.68709 4.77025,-14.53273 14.30921,-34.17449 22.74457,-46.83175 19.69239,-29.5484 46.46896,-53.17601 78.85518,-69.58109 16.30643,-8.25995 30.65584,-13.37319 49.1972,-17.53168 l 12.59693,-2.66465 c 2.74875,-9.06897 3.96697,-16.03155 6.11846,-25.44623 z m 55.17823,2.51089 c -0.95575,-0.0344 -1.64204,0.0117 -2.00117,0.14953 -0.90878,0.34874 -0.77791,2.35255 0.73811,11.29116 1.01368,5.97676 2.27558,13.54729 2.8045,16.8238 0.52892,3.2765 1.13963,5.78014 1.35692,5.56286 0.21727,-0.21728 -0.0376,-2.47962 -0.56632,-5.02678 -0.54211,-2.61131 -0.65398,-4.9391 -0.25611,-5.33697 0.94534,-0.94534 18.12184,2.5942 29.86797,6.15462 76.83857,23.29082 132.46446,87.25704 143.43972,164.94828 0.41733,2.95414 0.6378,5.5932 0.6363,7.09316 l 24.53539,0 c -4.04757,-51.00004 -28.17127,-112.50347 -84.19338,-152.34316 -21.83762,-17.5687 -49.64938,-32.381 -76.55972,-40.77416 -13.22312,-4.1242 -33.11196,-8.30117 -39.80221,-8.54234 z m 3.4933,35.20493 c -0.031,-0.0162 -0.0595,-0.0121 -0.0843,0.0127 -0.19909,0.19909 -0.11097,1.69972 0.19566,3.33422 0.30663,1.63451 0.72037,2.80792 0.91946,2.60883 0.1991,-0.19909 0.11098,-1.69812 -0.19566,-3.33262 -0.2683,-1.4302 -0.61838,-2.5094 -0.83514,-2.62316 z m 1.58439,7.33815 c -0.12345,-0.0187 -0.20782,0.28031 -0.23226,0.87332 -0.0353,0.85858 0.15728,1.33963 0.42791,1.06899 0.27061,-0.27064 0.29891,-0.97418 0.0636,-1.56212 -0.0975,-0.24365 -0.18522,-0.36898 -0.25929,-0.38019 z m -70.71849,1.76255 c -0.0261,-0.007 -0.0537,-0.007 -0.0811,0.002 -0.18311,0.056 -0.39426,0.4586 -0.57426,1.14693 -0.35426,1.35474 -0.24965,1.67337 0.35474,1.06898 0.47329,-0.47328 0.70172,-1.34199 0.50586,-1.92958 -0.0572,-0.17157 -0.1271,-0.26573 -0.20521,-0.28793 z"
         style="fill:#017b22" />
      <path
         sodipodi:nodetypes="cccssccccccccsccscsccccccccccccccccsssssccsccscccscsccccsssssssccssccccccsscccccccccccsscccscscscsccccccsssscc"
         id="path4237-8"
         d="m 303.18407,291.84977 c 423.43911,275.28978 211.71955,137.64488 0,0 z m 56.85201,35.05823 c -5.92772,0.0421 -28.98207,3.41324 -43.15508,6.949 -74.69008,18.63311 -139.62166,73.90284 -170.38157,144.85159 -9.75183,22.49306 -16.26352,49.92493 -18.1359,70.58694 l -0.28412,5.80595 c 8.14175,0.29923 16.28028,0.11066 24.42232,-0.0268 0.84359,-11.87238 2.50065,-25.12527 5.27646,-35.37198 0.10938,-0.4131 0.22226,-0.82505 0.33409,-1.23758 0.0358,-0.12901 0.07,-0.25745 0.10653,-0.38654 5.88907,-21.57991 15.0053,-42.32538 26.99504,-61.39194 2.89999,-4.65644 5.93713,-9.11805 9.15801,-13.46571 2.05775,-2.80711 4.17771,-5.57313 6.36618,-8.28782 2.86089,-3.54879 6.65689,-7.75703 10.87915,-12.13585 0.03,-0.0315 0.0591,-0.0624 0.0891,-0.0939 2.43879,-2.56346 4.97669,-5.13444 7.64356,-7.73105 3.85935,-3.75768 7.68335,-7.26265 11.52659,-10.57691 3.50184,-3.06975 6.82091,-5.81205 9.702,-7.97603 1.08896,-0.81793 2.19754,-1.61756 3.30399,-2.41794 0.19618,-0.14438 0.39356,-0.28749 0.59017,-0.4311 0.38884,-0.27939 0.77672,-0.55954 1.16761,-0.83673 7.08936,-5.10271 14.47551,-9.73407 22.47256,-14.1052 16.66759,-9.2245 34.35594,-16.44634 51.87443,-21.0902 0.22906,-0.0625 0.45807,-0.1244 0.6872,-0.18612 0.3015,-0.0788 0.60376,-0.16773 0.90514,-0.24497 0.17608,-0.0451 0.38646,-0.0929 0.56631,-0.1384 5.8767,-1.54055 11.76841,-2.83249 17.63985,-3.86076 4.826,-0.92798 9.12586,-1.65088 11.67135,-1.93275 1.99252,-0.37731 3.45387,-0.70849 3.80667,-0.88924 0.85658,-1.97352 4.77237,-23.37805 4.77237,-23.37805 z m 46.84913,1.37 c -2.37265,-0.0344 -3.52002,0.28202 -3.56488,0.94331 1.29662,9.61054 2.75018,18.76596 3.41376,20.46344 0.0493,0.118 0.0961,0.22433 0.13521,0.26407 0.51002,0.51778 4.95901,1.54832 9.88652,2.29068 1.1964,0.18024 2.39082,0.37039 3.58238,0.56949 1.19156,0.19909 2.37979,0.40724 3.56647,0.62516 2.37388,0.43592 4.7375,0.90941 7.09157,1.42054 3.53034,0.76655 7.0381,1.6179 10.52283,2.55316 1.16157,0.31175 2.31938,0.63194 3.47579,0.9624 4.9e-4,1.4e-4 8.2e-4,-1.3e-4 0.002,0 1.15592,0.33034 2.30917,0.67068 3.45989,1.01967 4.6053,1.39667 9.16837,2.94219 13.68842,4.63705 1.12989,0.42368 2.2559,0.85738 3.38035,1.29965 2.24936,0.88467 4.48728,1.80581 6.71456,2.76472 1.11342,0.47937 2.22321,0.96719 3.33104,1.46509 4.4e-4,1.9e-4 8.1e-4,-2.1e-4 0.002,0 1.10738,0.4977 2.21177,1.00616 3.31353,1.52235 4.40922,2.0657 8.77312,4.27881 13.0903,6.63979 1.07919,0.59021 2.15432,1.18895 3.22763,1.79755 1.07373,0.60882 2.14393,1.22603 3.21173,1.85323 1.06741,0.62698 2.13121,1.26357 3.19264,1.9089 3.9e-4,2.4e-4 8.2e-4,-2.3e-4 0.002,0 1.06105,0.64512 2.11851,1.29955 3.17355,1.96299 1.05581,0.66391 2.10789,1.33643 3.15765,2.01866 1.04936,0.682 2.09528,1.37405 3.13855,2.07435 4.17344,2.80137 8.29742,5.748 12.37127,8.8414 0.64223,0.48766 1.32731,1.02789 2.05048,1.61461 3.61604,2.93372 8.16838,7.03071 12.9026,11.5425 1.89352,1.80451 3.81545,3.67534 5.71875,5.56445 1.90356,1.88941 3.78753,3.79611 5.60422,5.67421 5.44928,5.63351 10.29071,10.99967 13.21915,14.80514 0.78393,1.01871 1.55722,2.03906 2.32091,3.0606 l 0.005,0.005 c 0.30949,0.41401 0.61009,0.82947 0.91627,1.24396 0.93235,1.2622 1.85024,2.52689 2.752,3.79395 0.26223,0.36845 0.52936,0.73668 0.78902,1.10558 0.003,0.005 0.007,0.009 0.0112,0.0143 0.71994,1.02299 1.4298,2.04682 2.13001,3.07333 0.005,0.007 0.01,0.0138 0.0143,0.0207 0.69873,1.02455 1.38722,2.0514 2.06639,3.07969 0.006,0.009 0.0118,0.0169 0.0175,0.0254 0.25825,0.3911 0.50814,0.78391 0.76356,1.17557 0.4219,0.64692 0.84565,1.2938 1.25988,1.94231 0.6572,1.02888 1.30594,2.05936 1.9439,3.09242 0.007,0.0121 0.0148,0.0245 0.0222,0.0366 0.6367,1.03143 1.26422,2.06613 1.88186,3.10196 0.008,0.0133 0.016,0.0265 0.0239,0.0397 0.61674,1.03481 1.22357,2.07207 1.8214,3.11151 0.57931,1.00717 1.15002,2.01706 1.71166,3.02879 0.0253,0.0456 0.0511,0.0912 0.0763,0.13681 0.009,0.017 0.0192,0.0339 0.0286,0.0509 0.57645,1.04081 1.14264,2.08473 1.70051,3.1306 0.01,0.0186 0.0203,0.0371 0.0302,0.0557 0.55673,1.04444 1.10337,2.09043 1.64166,3.14015 0.54832,1.0692 1.0869,2.13998 1.6162,3.2149 0.52878,1.07388 1.04744,2.151 1.55735,3.23082 2.00051,4.23648 3.85535,8.52077 5.56922,12.85805 0.0339,0.0856 0.0697,0.17044 0.1034,0.25611 0.002,0.004 0.003,0.008 0.005,0.0127 0.43369,1.10187 0.85713,2.20773 1.2726,3.3167 0.41732,1.11386 0.82585,2.23042 1.22488,3.35177 0.39888,1.12079 0.78848,2.2454 1.16921,3.37392 0.38057,1.12804 0.75258,2.26039 1.11512,3.39632 0.36269,1.13634 0.71629,2.27708 1.06102,3.42165 0.34475,1.14457 0.68004,2.29264 1.00695,3.4456 0.32679,1.15246 0.6438,2.3099 0.95286,3.471 2.18041,8.19157 3.9237,16.59994 5.24312,25.26911 l 0.0334,0.21632 c 0.89792,5.78678 1.9353,10.76919 2.45135,11.79704 l 10.65486,0 11.31025,0 -0.55835,-6.16257 c -1.3332,-14.71225 -5.91453,-34.63619 -12.04995,-52.3978 -9.41269,-27.24913 -22.67658,-51.36016 -41.04141,-74.60468 -9.03951,-11.44137 -29.97345,-32.25112 -41.19412,-40.95074 -36.16662,-28.04075 -76.04339,-45.23614 -120.33563,-51.88874 -5.05957,-0.75994 -8.73934,-1.1565 -11.15595,-1.19147 z"
         style="fill:#fcea00"
         inkscape:connector-curvature="0" />
      <path
         sodipodi:nodetypes="csscccscccscsssscccsssc"
         id="path4235-0"
         d="m 363.08175,303.94285 c -3.46756,-0.0106 -17.49724,2.38123 -27.15223,3.61824 -109.96676,14.08914 -193.54689,94.01437 -223.1157,197.0719 -5.30526,18.49056 -10.46718,48.05784 -8.77464,50.25983 0.5922,0.7704 7.05433,0.29088 23.85267,0.29088 3.02867,-26.44776 9.46183,-54.6653 18.82883,-76.64699 30.75989,-70.94879 94.97159,-125.49857 169.66167,-144.13174 16.19772,-4.04089 41.77968,-7.79192 43.55412,-7.40592 z m 39.33485,1.18275 c -1.39726,0.0228 -2.17965,0.19822 -2.14434,0.5329 l 2.44658,23.18522 c 0.0906,-1.33483 4.69374,-1.25786 14.72083,0.24817 44.29224,6.65263 84.16901,23.84802 120.33563,51.88876 11.22067,8.69962 32.15461,29.50937 41.19412,40.95073 18.36483,23.24451 31.62872,47.35553 41.04141,74.60468 6.13542,17.76162 10.71675,37.68555 12.04995,52.3978 l 0.55834,6.16257 22.94343,0.0716 c 1.31578,-2.12901 -4.2135,-32.97484 -8.84936,-49.36261 -9.64846,-34.10752 -27.65147,-69.31196 -49.31173,-96.433 -42.47462,-53.18302 -101.75268,-88.81327 -167.40122,-100.61829 -13.34147,-2.39909 -23.39185,-3.69686 -27.58364,-3.62852 z"
         style="fill:#fd8b00"
         inkscape:connector-curvature="0" />
      <path
         sodipodi:nodetypes="cscccccccccsccccssccc"
         inkscape:connector-curvature="0"
         id="path4625"
         d="m 342.31176,396.60652 c 0,0 -2.85539,1.4109 -6.73934,2.34501 -43.97176,10.5755 -83.35505,38.36472 -108.23954,76.37361 -17.44895,26.50928 -21.78955,39.32937 -27.95565,78.92179 l 23.07839,-0.0761 c 3.4524,-59.47811 62.33341,-115.51216 100.62304,-126.80204 4.0316,-1.51752 7.95201,-3.10703 8.71096,-3.53307 0,0 5.3361,-11.51458 6.37255,-14.55213 2.18299,-6.43411 3.88188,-12.48241 4.12982,-12.73042 z m 76.4855,24.90734 c 0.58942,0.48916 8.39252,2.77779 13.06658,4.39459 41.37299,14.31121 75.9829,46.48951 92.8904,86.36352 6.83576,16.6402 7.44271,26.42739 12.1213,42.92208 l 24.96254,-0.36536 c -0.38619,-2.70215 -1.23293,-6.34731 -1.85596,-10.86238 -1.26592,-9.01947 -6.64166,-29.40103 -10.11173,-38.45389 -16.13685,-42.0988 -48.08112,-74.35983 -89.29255,-94.42141 -13.07651,-6.36561 -21.59147,-8.92255 -36.1582,-12.69955 l -8.77021,-2.40908 z"
         style="fill:#720585" />
    </g>
  </g>
</svg>
